<?xml version="1.0" encoding="utf-8"?>
<!-- Generator: Adobe Illustrator 26.0.0, SVG Export Plug-In . SVG Version: 6.00 Build 0)  -->
<svg version="1.1" id="Layer_1" xmlns="http://www.w3.org/2000/svg" xmlns:xlink="http://www.w3.org/1999/xlink" x="0px" y="0px"
	 viewBox="0 0 296.05 215.05" style="enable-background:new 0 0 296.05 215.05;" xml:space="preserve">
<style type="text/css">
	.st0{fill:#121C33;}
</style>
<g id="Group_23" transform="translate(0)">
	<g id="Group_13" transform="translate(0 115.337)">
		<path id="Path_8" class="st0" d="M15.11,15.2h6.66l4.97,23.15l4.77-23.15h5.98l4.78,23.15l4.97-23.15h6.71L45.93,49.2h-6.8
			L34.5,26.68L29.87,49.2h-6.8L15.11,15.2z"/>
		<path id="Path_9" class="st0" d="M57.56,15.2h6.66V49.2h-6.66V15.2z"/>
		<path id="Path_10" class="st0" d="M70.83,15.2h10.8c6.8,0,11.38,4.39,11.38,12.3v0.96c0,5.26-2.27,8.78-5.93,10.42l5.74,10.32
			h-7.28l-4.58-8.78h-3.48v8.78h-6.66L70.83,15.2z M80.81,34.11c2.89,0,5.6-1.25,5.6-5.74V27.4c0-4.68-2.6-5.84-5.6-5.84h-3.33
			v12.54L80.81,34.11z"/>
		<path id="Path_11" class="st0" d="M98.32,15.2h19.1v6.42h-12.44v7.72h9.21v5.79h-9.21v7.72h12.44v6.37h-19.1V15.2z"/>
		<path id="Path_12" class="st0" d="M122.59,15.2h11.19c6.75,0,11.43,4.15,11.43,12.45v8.97c0,8.2-4.68,12.59-11.43,12.59h-11.19
			V15.2z M133.01,42.88c3.18,0,5.59-1.25,5.59-7.91v-6.61c0-3.67-0.96-6.8-5.59-6.8h-3.76v21.32H133.01z"/>
		<path id="Path_13" class="st0" d="M161.51,15.2h10.42c6.7,0,11.29,2.99,11.29,9.26v0.48c0,3.67-1.59,6.03-4.29,7.19
			c2.89,1.25,4.63,3.57,4.63,7.33v0.43c0,6.27-4.58,9.31-11.29,9.31h-10.76V15.2z M172.27,29.57c2.17,0,4.34-0.72,4.34-3.86v-0.53
			c0-2.94-2.41-3.62-4.92-3.62h-3.52v8.01L172.27,29.57z M172.03,42.88c2.56,0,4.92-0.63,4.92-3.96V38.4c0-2.89-2.36-3.67-4.68-3.67
			h-4.1v8.15L172.03,42.88z"/>
		<path id="Path_14" class="st0" d="M188.77,15.2h10.8c6.8,0,11.39,4.39,11.39,12.3v0.96c0,5.26-2.27,8.78-5.93,10.42l5.74,10.32
			h-7.28l-4.58-8.78h-3.48v8.78h-6.66L188.77,15.2z M198.75,34.11c2.89,0,5.6-1.25,5.6-5.74V27.4c0-4.68-2.6-5.84-5.6-5.84h-3.33
			v12.54L198.75,34.11z"/>
		<path id="Path_15" class="st0" d="M223.31,15.2h7.28l9.84,34.01h-6.8l-1.79-6.7h-9.89l-1.88,6.7h-6.75L223.31,15.2z M230.45,36.76
			l-3.47-13.31l-3.62,13.31L230.45,36.76z"/>
		<path id="Path_16" class="st0" d="M243.96,15.2h6.66V49.2h-6.66V15.2z"/>
		<path id="Path_17" class="st0" d="M257.22,15.2h6.27l9.99,19.78V15.2h6.7V49.2h-6.27l-10.03-19.68V49.2h-6.66L257.22,15.2z"/>
		<path id="Path_18" class="st0" d="M42.37,76.84V70c0-4.12,2.75-6.99,6.73-6.99c4.12,0,6.76,3.07,6.76,7.27v0.17h-2.81v-0.2
			c0-2.38-1.26-4.53-3.95-4.53c-2.1-0.07-3.87,1.57-3.94,3.67c-0.01,0.17,0,0.34,0.02,0.51v7.02c0,2.78,1.72,4.21,3.92,4.21
			c2.95,0,3.95-2.49,3.95-4.7v-0.2h2.81v0.2c0,4.3-2.55,7.42-6.76,7.42C45.12,83.86,42.37,80.97,42.37,76.84z"/>
		<path id="Path_19" class="st0" d="M58.73,76.84v-6.79c0-4.12,2.75-7.02,6.73-7.02c3.95,0,6.76,2.89,6.76,7.02v6.79
			c0,4.12-2.81,6.99-6.76,6.99C61.48,83.83,58.73,80.97,58.73,76.84z M65.46,81.14c2.1,0.07,3.87-1.57,3.94-3.67
			c0.01-0.17,0-0.34-0.02-0.51v-7.02c0-2.78-1.72-4.21-3.92-4.21c-2.1-0.07-3.87,1.57-3.94,3.67c-0.01,0.17,0,0.34,0.02,0.51v7.02
			C61.53,79.71,63.25,81.14,65.46,81.14L65.46,81.14z"/>
		<path id="Path_20" class="st0" d="M75.94,63.38h10.8v2.72h-7.99v6.07h5.67v2.49h-5.67v8.91h-2.81L75.94,63.38z"/>
		<path id="Path_21" class="st0" d="M90.03,63.38h10.8v2.72h-7.99v6.07h5.67v2.49h-5.67v8.91h-2.8L90.03,63.38z"/>
		<path id="Path_22" class="st0" d="M104.12,63.38h11.23v2.72h-8.42v6.07h6.13v2.49h-6.13v6.18h8.42v2.72h-11.23V63.38z"/>
		<path id="Path_23" class="st0" d="M118.93,63.38h11.23v2.72h-8.42v6.07h6.13v2.49h-6.13v6.18h8.42v2.72h-11.23V63.38z"/>
		<path id="Path_24" class="st0" d="M139.47,76.84V70c0-4.12,2.75-6.99,6.73-6.99c4.12,0,6.76,3.07,6.76,7.27v0.17h-2.81v-0.2
			c0-2.38-1.26-4.53-3.95-4.53c-2.1-0.07-3.87,1.57-3.94,3.67c-0.01,0.17,0,0.34,0.02,0.51v7.02c0,2.78,1.72,4.21,3.92,4.21
			c2.95,0,3.95-2.49,3.95-4.7v-0.2h2.81v0.2c0,4.3-2.55,7.42-6.76,7.42C142.22,83.86,139.47,80.97,139.47,76.84z"/>
		<path id="Path_25" class="st0" d="M155.82,76.84v-6.79c0-4.12,2.75-7.02,6.73-7.02c3.95,0,6.76,2.89,6.76,7.02v6.79
			c0,4.12-2.8,6.99-6.76,6.99C158.57,83.83,155.82,80.97,155.82,76.84z M162.55,81.14c2.1,0.07,3.87-1.57,3.94-3.68
			c0.01-0.17,0-0.34-0.02-0.51v-7.02c0-2.78-1.72-4.21-3.92-4.21c-2.1-0.07-3.87,1.57-3.94,3.67c-0.01,0.17,0,0.34,0.02,0.51v7.02
			C158.63,79.71,160.35,81.14,162.55,81.14L162.55,81.14z"/>
		<path id="Path_26" class="st0" d="M173.04,63.38h2.75l5.61,13.03l5.64-13.03h2.75v20.19h-2.81V69.54l-4.58,10.54h-2l-4.55-10.48
			v13.98h-2.8L173.04,63.38z"/>
		<path id="Path_27" class="st0" d="M194.09,63.38h5.93c3.95,0,6.9,2.52,6.9,7.1v0.77c0,4.58-2.95,6.99-6.9,6.99h-3.12v5.33h-2.81
			V63.38z M199.87,75.56c2.41,0,4.27-1.29,4.27-4.33v-0.74c0-3.49-2.06-4.38-4.27-4.38h-2.97v9.45L199.87,75.56z"/>
		<path id="Path_28" class="st0" d="M213.34,63.38h3.15l6.44,20.19h-2.95l-1.38-4.55h-7.5l-1.4,4.55h-2.92L213.34,63.38z
			 M217.92,76.58l-3.01-10.11l-3.09,10.11H217.92z"/>
		<path id="Path_29" class="st0" d="M225.4,63.38H228l8.14,14.83V63.38h2.84v20.19h-2.64L228.2,68.8v14.78h-2.8L225.4,63.38z"/>
		<path id="Path_30" class="st0" d="M247.82,76.22l-6.27-12.83h3.04l4.64,9.91l4.72-9.91h3.01l-6.33,12.83v7.36h-2.8L247.82,76.22z"
			/>
	</g>
	<g id="Group_22" transform="translate(97.836 0)">
		<g id="Group_14" transform="translate(0 0.001)">
			<path id="Path_31" class="st0" d="M46.59,102.63c-2.95,0.05-5.88-0.55-8.57-1.77c-2.58-1.36-4.57-4.19-6.49-6.93
				c-0.85-1.21-1.66-2.36-2.44-3.26c-0.81-0.89-1.7-1.7-2.64-2.44c-2.06-1.48-3.73-3.43-4.86-5.7c-1.05-2.34-1.26-5.13-1.45-7.83
				c-0.08-1.49-0.24-2.98-0.49-4.45c-0.42-1.46-1.06-2.85-1.91-4.11c-1.24-2.11-2.64-4.51-2.63-7.22c-0.01-2.69,1.39-5.09,2.63-7.2
				c0.85-1.26,1.49-2.65,1.91-4.11c0.19-1.65,0.13-3.32-0.18-4.95c-0.33-2.48-0.67-5.05,0.36-7.33c1.42-3.16,3.88-5.88,6.05-8.27
				c0.5-0.56,0.99-1.1,1.45-1.63c0.34-0.39,0.69-0.79,1.03-1.2c2.34-2.74,4.77-5.58,7.91-7.24c3.63-1.92,10.12-1.78,10.85-1.76
				c0.95,0.03,1.7,0.81,1.7,1.76v83.91c0,0.94-0.74,1.72-1.68,1.76C47.09,102.63,46.9,102.63,46.59,102.63z M45.31,18.73
				c-2.25,0.07-5.58,0.38-7.4,1.35c-2.55,1.34-4.75,3.92-6.88,6.42c-0.35,0.41-0.7,0.82-1.05,1.22c-0.48,0.55-0.98,1.1-1.5,1.68
				c-1.99,2.2-4.25,4.7-5.45,7.36c-0.62,1.37-0.36,3.34-0.08,5.43c0.37,2,0.42,4.05,0.15,6.07c-0.48,1.86-1.26,3.62-2.33,5.22
				c-1.11,1.89-2.15,3.68-2.14,5.43c-0.01,1.77,1.04,3.55,2.14,5.45c1.06,1.6,1.85,3.36,2.33,5.22c0.28,1.61,0.46,3.23,0.54,4.86
				c0.02,2.26,0.41,4.51,1.15,6.65c0.93,1.77,2.26,3.3,3.9,4.44c1.09,0.86,2.11,1.81,3.05,2.84c0.95,1.14,1.84,2.32,2.67,3.55
				c1.68,2.4,3.43,4.88,5.26,5.85c1.78,0.81,3.7,1.26,5.65,1.32V18.73z"/>
		</g>
		<g id="Group_15" transform="translate(15.024 8.219)">
			<path id="Path_32" class="st0" d="M25.19,37.4h-3.51V24.36l-6.57-6.71l2.51-2.46l7.57,7.73L25.19,37.4z"/>
		</g>
		<g id="Group_16" transform="translate(19.785 46.466)">
			<ellipse id="Ellipse_14" class="st0" cx="17.7" cy="17.79" rx="2.6" ry="2.6"/>
		</g>
		<g id="Group_17" transform="translate(20.752 27.996)">
			<ellipse id="Ellipse_15" class="st0" cx="17.7" cy="17.79" rx="2.6" ry="2.6"/>
		</g>
		<g id="Group_18" transform="translate(6.324 18.93)">
			<path id="Path_33" class="st0" d="M30.33,46.83l-9.15-4.96V24.18l-6.07-6.61l2.59-2.37l7,7.62v16.96L32,43.74L30.33,46.83z"/>
		</g>
		<g id="Group_19" transform="translate(38.587)">
			<path id="Path_34" class="st0" d="M16.86,16.96c0,0,6.65-0.2,9.98,1.56c3.29,1.73,5.87,5.08,8.43,8.04
				c2.39,2.74,5.6,5.85,7.23,9.47c1.49,3.31-0.69,8,0.06,11.89c0.69,3.57,4.52,7.03,4.5,10.99c0.02,3.96-3.81,7.42-4.5,10.99
				c-0.75,3.9-0.33,8.59-1.82,11.9c-1.63,3.62-4.84,4.97-7.23,7.72c-2.57,2.96-5.15,8.06-8.43,9.79c-3.33,1.76-8.22,1.56-8.22,1.56
				L16.86,16.96z"/>
			<path id="Path_35" class="st0" d="M17.33,102.63c-0.31,0-0.5-0.01-0.54-0.01c-0.94-0.04-1.68-0.81-1.68-1.76V16.96
				c0-0.95,0.75-1.73,1.7-1.76c0.73-0.03,7.21-0.16,10.85,1.76c3.14,1.66,5.56,4.5,7.91,7.24c0.34,0.4,0.69,0.8,1.03,1.2
				c0.46,0.53,0.95,1.07,1.45,1.63c2.17,2.4,4.62,5.11,6.05,8.27c1.03,2.28,0.69,4.85,0.36,7.33c-0.31,1.63-0.37,3.3-0.18,4.95
				c0.42,1.46,1.06,2.85,1.91,4.11c1.24,2.11,2.64,4.51,2.62,7.22c0.01,2.69-1.39,5.09-2.62,7.2c-0.85,1.26-1.49,2.65-1.91,4.11
				c-0.25,1.47-0.41,2.96-0.49,4.45c-0.19,2.7-0.4,5.5-1.45,7.83c-1.13,2.27-2.8,4.22-4.86,5.7c-0.94,0.74-1.83,1.56-2.64,2.45
				c-0.78,0.9-1.59,2.05-2.44,3.26c-1.92,2.74-3.92,5.57-6.5,6.93C23.21,102.07,20.28,102.68,17.33,102.63z M18.62,18.73v80.35
				c1.95-0.06,3.87-0.51,5.65-1.32c1.83-0.97,3.58-3.45,5.26-5.85c0.83-1.23,1.72-2.41,2.67-3.55c0.94-1.03,1.95-1.98,3.05-2.84
				c1.64-1.15,2.98-2.67,3.91-4.44c0.74-2.14,1.13-4.38,1.15-6.65c0.09-1.63,0.27-3.25,0.54-4.86c0.48-1.86,1.26-3.62,2.33-5.22
				c1.11-1.89,2.15-3.68,2.14-5.43c0.01-1.77-1.04-3.55-2.14-5.45c-1.06-1.6-1.85-3.36-2.32-5.22c-0.28-2.02-0.23-4.07,0.15-6.07
				c0.28-2.09,0.54-4.06-0.08-5.43c-1.2-2.66-3.46-5.16-5.45-7.36c-0.52-0.57-1.03-1.13-1.5-1.68c-0.35-0.4-0.7-0.81-1.05-1.22
				c-2.13-2.49-4.33-5.07-6.88-6.42C24.2,19.11,20.87,18.8,18.62,18.73L18.62,18.73z"/>
		</g>
		<g id="Group_20" transform="translate(16.515 59.374)">
			
				<rect id="Rectangle_6" x="21.06" y="12.02" transform="matrix(0.3653 -0.9309 0.9309 0.3653 -3.7695 33.6781)" class="st0" width="3.51" height="15.18"/>
		</g>
		<g id="Group_21" transform="translate(15.137 58.413)">
			<ellipse id="Ellipse_16" class="st0" cx="17.7" cy="17.79" rx="2.6" ry="2.6"/>
		</g>
	</g>
</g>
</svg>
