<?xml version="1.0" encoding="utf-8"?>
<!-- Generator: Adobe Illustrator 26.0.0, SVG Export Plug-In . SVG Version: 6.00 Build 0)  -->
<svg version="1.1" id="Layer_1" xmlns="http://www.w3.org/2000/svg" xmlns:xlink="http://www.w3.org/1999/xlink" x="0px" y="0px"
	 viewBox="0 0 183.89 139.6" style="enable-background:new 0 0 183.89 139.6;" xml:space="preserve">
<style type="text/css">
	.st0{fill:#121C33;}
</style>
<g id="Group_23" transform="translate(0)">
	<g id="Group_13" transform="translate(0 115.337)">
		<path id="Path_8" class="st0" d="M4.3-31.13h4.39l3.27,15.26l3.15-15.26h3.94l3.15,15.26l3.27-15.26h4.42L24.61-8.72h-4.48
			l-3.05-14.85L14.03-8.72H9.54L4.3-31.13z"/>
		<path id="Path_9" class="st0" d="M32.27-31.13h4.39v22.41h-4.39V-31.13z"/>
		<path id="Path_10" class="st0" d="M41.01-31.13h7.12c4.48,0,7.5,2.89,7.5,8.11v0.64c0,3.46-1.49,5.78-3.91,6.87l3.78,6.8h-4.8
			l-3.02-5.79H45.4v5.79h-4.39L41.01-31.13z M47.59-18.67c1.91,0,3.69-0.83,3.69-3.78v-0.63c0-3.08-1.72-3.85-3.69-3.85H45.4v8.27
			L47.59-18.67z"/>
		<path id="Path_11" class="st0" d="M59.14-31.13h12.59v4.23h-8.2v5.09h6.07v3.81h-6.07v5.09h8.2v4.2H59.14V-31.13z"/>
		<path id="Path_12" class="st0" d="M75.12-31.13h7.38c4.45,0,7.53,2.73,7.53,8.2v5.91c0,5.4-3.08,8.3-7.53,8.3h-7.38V-31.13z
			 M81.99-12.89c2.1,0,3.69-0.83,3.69-5.21v-4.36c0-2.42-0.63-4.48-3.69-4.48h-2.48v14.05H81.99z"/>
		<path id="Path_13" class="st0" d="M100.78-31.13h6.87c4.42,0,7.44,1.97,7.44,6.1v0.32c0,2.42-1.05,3.97-2.83,4.74
			c1.91,0.83,3.05,2.35,3.05,4.83v0.29c0,4.13-3.02,6.14-7.44,6.14h-7.09V-31.13z M107.87-21.66c1.43,0,2.86-0.48,2.86-2.54v-0.35
			c0-1.94-1.59-2.38-3.24-2.38h-2.32v5.28L107.87-21.66z M107.71-12.89c1.69,0,3.24-0.41,3.24-2.61v-0.35
			c0-1.91-1.56-2.42-3.08-2.42h-2.7v5.37L107.71-12.89z"/>
		<path id="Path_14" class="st0" d="M118.74-31.13h7.12c4.48,0,7.5,2.89,7.5,8.11v0.64c0,3.46-1.49,5.78-3.91,6.87l3.78,6.8h-4.8
			l-3.02-5.79h-2.29v5.79h-4.39L118.74-31.13z M125.32-18.67c1.91,0,3.69-0.83,3.69-3.78v-0.63c0-3.08-1.71-3.85-3.69-3.85h-2.19
			v8.27L125.32-18.67z"/>
		<path id="Path_15" class="st0" d="M141.5-31.13h4.8l6.49,22.41h-4.48l-1.18-4.42h-6.52l-1.24,4.42h-4.45L141.5-31.13z
			 M146.21-16.92l-2.29-8.77l-2.38,8.77L146.21-16.92z"/>
		<path id="Path_16" class="st0" d="M155.11-31.13h4.39v22.41h-4.39V-31.13z"/>
		<path id="Path_17" class="st0" d="M163.85-31.13h4.13l6.58,13.03v-13.03h4.42v22.41h-4.13l-6.61-12.97v12.97h-4.39L163.85-31.13z"
			/>
		<path id="Path_18" class="st0" d="M22.26,9.49V4.98c0-2.72,1.81-4.6,4.43-4.6c2.72,0,4.45,2.02,4.45,4.79v0.11H29.3V5.15
			c0-1.57-0.83-2.98-2.61-2.98c-1.39-0.05-2.55,1.03-2.6,2.42c0,0.11,0,0.22,0.01,0.33v4.62c0,1.83,1.13,2.77,2.59,2.77
			c1.94,0,2.61-1.64,2.61-3.1V9.1h1.85v0.13c0,2.83-1.68,4.89-4.45,4.89C24.08,14.12,22.26,12.21,22.26,9.49z"/>
		<path id="Path_19" class="st0" d="M33.04,9.49V5.02c0-2.72,1.81-4.62,4.43-4.62c2.61,0,4.45,1.91,4.45,4.62v4.47
			c0,2.72-1.85,4.6-4.45,4.6C34.85,14.1,33.04,12.21,33.04,9.49z M37.48,12.33c1.39,0.05,2.55-1.04,2.6-2.42
			c0-0.11,0-0.22-0.01-0.34V4.95c0-1.83-1.13-2.77-2.59-2.77c-1.39-0.05-2.55,1.03-2.6,2.42c0,0.11,0,0.22,0.01,0.33v4.62
			C34.89,11.38,36.02,12.32,37.48,12.33L37.48,12.33z"/>
		<path id="Path_20" class="st0" d="M44.39,0.62h7.12v1.79h-5.27v4h3.74v1.64h-3.74v5.87h-1.85L44.39,0.62z"/>
		<path id="Path_21" class="st0" d="M53.67,0.62h7.12v1.79h-5.27v4h3.74v1.64h-3.74v5.87h-1.85L53.67,0.62z"/>
		<path id="Path_22" class="st0" d="M62.96,0.62h7.4v1.79h-5.55v4h4.04v1.64h-4.04v4.08h5.55v1.79h-7.4V0.62z"/>
		<path id="Path_23" class="st0" d="M72.72,0.62h7.4v1.79h-5.55v4h4.04v1.64h-4.04v4.08h5.55v1.79h-7.4V0.62z"/>
		<path id="Path_24" class="st0" d="M86.25,9.49V4.98c0-2.72,1.81-4.6,4.43-4.6c2.72,0,4.45,2.02,4.45,4.79v0.11h-1.85V5.15
			c0-1.57-0.83-2.98-2.6-2.98c-1.39-0.05-2.55,1.04-2.6,2.42c0,0.11,0,0.22,0.01,0.33v4.62c0,1.83,1.13,2.77,2.59,2.77
			c1.94,0,2.6-1.64,2.6-3.1V9.1h1.85v0.13c0,2.83-1.68,4.89-4.45,4.89C88.06,14.12,86.25,12.21,86.25,9.49z"/>
		<path id="Path_25" class="st0" d="M97.03,9.49V5.02c0-2.72,1.81-4.62,4.43-4.62c2.61,0,4.45,1.91,4.45,4.62v4.47
			c0,2.72-1.85,4.6-4.45,4.6C98.84,14.1,97.03,12.21,97.03,9.49z M101.46,12.33c1.39,0.05,2.55-1.04,2.6-2.42
			c0-0.11,0-0.22-0.01-0.33V4.95c0-1.83-1.13-2.77-2.58-2.77c-1.39-0.05-2.55,1.04-2.6,2.42c0,0.11,0,0.22,0.01,0.33v4.62
			C98.88,11.38,100.01,12.32,101.46,12.33L101.46,12.33z"/>
		<path id="Path_26" class="st0" d="M108.37,0.62h1.81l3.7,8.59l3.72-8.59h1.81v13.31h-1.85V4.68l-3.02,6.95h-1.32l-3-6.91v9.21
			h-1.85L108.37,0.62z"/>
		<path id="Path_27" class="st0" d="M122.25,0.62h3.91c2.6,0,4.55,1.66,4.55,4.68v0.51c0,3.02-1.94,4.61-4.55,4.61h-2.06v3.51h-1.85
			V0.62z M126.06,8.64c1.59,0,2.81-0.85,2.81-2.85V5.3c0-2.3-1.36-2.89-2.81-2.89h-1.96v6.23L126.06,8.64z"/>
		<path id="Path_28" class="st0" d="M134.93,0.62h2.08l4.25,13.31h-1.94l-0.91-3h-4.94l-0.92,3h-1.93L134.93,0.62z M137.95,9.32
			l-1.98-6.66l-2.04,6.66H137.95z"/>
		<path id="Path_29" class="st0" d="M142.88,0.62h1.72l5.36,9.78V0.62h1.87v13.31h-1.74l-5.36-9.74v9.74h-1.85L142.88,0.62z"/>
		<path id="Path_30" class="st0" d="M157.66,9.08l-4.13-8.46h2l3.06,6.53l3.11-6.53h1.98l-4.17,8.46v4.85h-1.85L157.66,9.08z"/>
	</g>
	<g id="Group_22" transform="translate(97.836 0)">
		<g id="Group_14" transform="translate(0 0.001)">
			<path id="Path_31" class="st0" d="M-8.31,65.82c-1.95,0.03-3.88-0.37-5.65-1.17c-1.7-0.9-3.01-2.76-4.28-4.57
				c-0.56-0.8-1.09-1.56-1.61-2.15c-0.54-0.58-1.12-1.12-1.74-1.61c-1.36-0.97-2.46-2.26-3.2-3.76c-0.69-1.54-0.83-3.38-0.96-5.16
				c-0.05-0.98-0.16-1.96-0.32-2.93c-0.27-0.96-0.7-1.88-1.26-2.71c-0.81-1.39-1.74-2.97-1.73-4.76c-0.01-1.78,0.91-3.35,1.73-4.74
				c0.56-0.83,0.98-1.75,1.26-2.71c0.13-1.09,0.09-2.19-0.12-3.26c-0.22-1.64-0.44-3.33,0.24-4.83c0.94-2.08,2.56-3.87,3.99-5.45
				c0.33-0.37,0.66-0.72,0.96-1.07c0.23-0.26,0.45-0.52,0.68-0.79c1.54-1.81,3.14-3.68,5.21-4.77c2.39-1.26,6.67-1.17,7.15-1.16
				c0.62,0.02,1.12,0.53,1.12,1.16v55.3c0,0.62-0.49,1.13-1.11,1.16C-7.99,65.81-8.11,65.82-8.31,65.82z M-9.16,10.52
				c-1.48,0.05-3.68,0.25-4.88,0.89c-1.68,0.89-3.13,2.59-4.53,4.23c-0.23,0.27-0.46,0.54-0.69,0.8c-0.31,0.36-0.65,0.72-0.99,1.11
				c-1.31,1.45-2.8,3.1-3.59,4.85c-0.41,0.9-0.24,2.2-0.05,3.58c0.25,1.32,0.28,2.67,0.1,4c-0.32,1.22-0.83,2.39-1.53,3.44
				c-0.73,1.25-1.42,2.43-1.41,3.58c-0.01,1.16,0.68,2.34,1.41,3.59c0.7,1.05,1.22,2.22,1.53,3.44c0.18,1.06,0.3,2.13,0.36,3.2
				c0.01,1.49,0.27,2.97,0.76,4.38c0.61,1.17,1.49,2.17,2.57,2.93c0.72,0.57,1.39,1.19,2.01,1.87c0.62,0.75,1.21,1.53,1.76,2.34
				c1.11,1.58,2.26,3.21,3.47,3.85c1.17,0.53,2.44,0.83,3.72,0.87V10.52z"/>
		</g>
		<g id="Group_15" transform="translate(15.024 8.219)">
			<path id="Path_32" class="st0" d="M-27.55,20.03h-2.31v-8.59l-4.33-4.42l1.65-1.62l4.99,5.09L-27.55,20.03z"/>
		</g>
		<g id="Group_16" transform="translate(19.785 46.466)">
			<ellipse id="Ellipse_14" class="st0" cx="-34.1" cy="-5.94" rx="1.71" ry="1.71"/>
		</g>
		<g id="Group_17" transform="translate(20.752 27.996)">
			<ellipse id="Ellipse_15" class="st0" cx="-34.43" cy="0.36" rx="1.71" ry="1.71"/>
		</g>
		<g id="Group_18" transform="translate(6.324 18.93)">
			<path id="Path_33" class="st0" d="M-21.19,22.59l-6.03-3.27V7.66l-4-4.36l1.7-1.57l4.61,5.02v11.18l4.82,2.61L-21.19,22.59z"/>
		</g>
		<g id="Group_19" transform="translate(38.587)">
			<path id="Path_34" class="st0" d="M-41.07,9.36c0,0,4.38-0.13,6.57,1.03c2.16,1.14,3.87,3.35,5.56,5.3
				c1.57,1.81,3.69,3.86,4.76,6.24c0.98,2.18-0.45,5.27,0.04,7.84c0.45,2.35,2.98,4.63,2.97,7.24c0.01,2.61-2.51,4.89-2.97,7.24
				c-0.49,2.57-0.21,5.66-1.2,7.84c-1.07,2.38-3.19,3.28-4.76,5.09c-1.69,1.95-3.39,5.31-5.56,6.45c-2.19,1.16-5.42,1.03-5.42,1.03
				L-41.07,9.36z"/>
			<path id="Path_35" class="st0" d="M-40.76,65.82c-0.2,0-0.33-0.01-0.36-0.01c-0.62-0.03-1.11-0.54-1.11-1.16V9.36
				c0-0.62,0.5-1.14,1.12-1.16c0.48-0.02,4.75-0.1,7.15,1.16c2.07,1.09,3.67,2.97,5.21,4.77c0.23,0.27,0.45,0.53,0.68,0.79
				c0.3,0.35,0.63,0.71,0.96,1.07c1.43,1.58,3.05,3.37,3.99,5.45c0.68,1.51,0.45,3.2,0.24,4.83c-0.21,1.08-0.25,2.18-0.12,3.26
				c0.27,0.96,0.7,1.88,1.26,2.71c0.81,1.39,1.74,2.97,1.73,4.76c0.01,1.78-0.91,3.35-1.73,4.74c-0.56,0.83-0.98,1.74-1.26,2.71
				c-0.16,0.97-0.27,1.95-0.32,2.93c-0.13,1.78-0.26,3.62-0.96,5.16c-0.75,1.49-1.85,2.78-3.2,3.76c-0.62,0.49-1.2,1.03-1.74,1.61
				c-0.52,0.59-1.05,1.35-1.61,2.15c-1.27,1.8-2.58,3.67-4.28,4.57C-36.88,65.45-38.81,65.85-40.76,65.82z M-39.91,10.52v52.95
				c1.29-0.04,2.55-0.34,3.72-0.87c1.21-0.64,2.36-2.27,3.47-3.85c0.55-0.81,1.13-1.59,1.76-2.34c0.62-0.68,1.29-1.3,2.01-1.87
				c1.08-0.76,1.96-1.76,2.58-2.93c0.49-1.41,0.75-2.89,0.76-4.38c0.06-1.07,0.18-2.14,0.36-3.2c0.31-1.22,0.83-2.39,1.53-3.44
				c0.73-1.25,1.42-2.43,1.41-3.58c0.01-1.16-0.68-2.34-1.41-3.59c-0.7-1.05-1.22-2.22-1.53-3.44c-0.18-1.33-0.15-2.68,0.1-4
				c0.18-1.38,0.35-2.67-0.05-3.58c-0.79-1.75-2.28-3.4-3.59-4.85c-0.34-0.38-0.68-0.75-0.99-1.11c-0.23-0.26-0.46-0.53-0.69-0.81
				c-1.4-1.64-2.86-3.34-4.53-4.23C-36.23,10.78-38.43,10.57-39.91,10.52L-39.91,10.52z"/>
		</g>
		<g id="Group_20" transform="translate(16.515 59.374)">
			
				<rect id="Rectangle_6" x="-30.78" y="-14.15" transform="matrix(0.3653 -0.9309 0.9309 0.3653 -10.2849 -33.3757)" class="st0" width="2.31" height="10"/>
		</g>
		<g id="Group_21" transform="translate(15.137 58.413)">
			<ellipse id="Ellipse_16" class="st0" cx="-32.52" cy="-10.01" rx="1.71" ry="1.71"/>
		</g>
	</g>
</g>
</svg>
